<svg width="92" height="84" viewBox="0 0 92 84" fill="none" xmlns="http://www.w3.org/2000/svg">
<path d="M45.4792 77.4167C45.8265 77.4167 46.2258 77.3299 46.6772 77.1562C47.1286 76.9826 47.4931 76.757 47.7709 76.4792L82.8751 41.2708C83.7779 40.3681 84.4549 39.338 84.9063 38.1805C85.3577 37.0232 85.5834 35.8658 85.5834 34.7083C85.5834 33.5278 85.3577 32.3472 84.9063 31.1667C84.4549 29.9861 83.7779 28.9444 82.8751 28.0417L64.1251 9.29167C63.2223 8.38889 62.1806 7.71181 61.0001 7.26042C59.8195 6.80903 58.639 6.58333 57.4584 6.58333C56.301 6.58333 55.1436 6.80903 53.9862 7.26042C52.8288 7.71181 51.7987 8.38889 50.8959 9.29167L49.0209 11.1667L57.4584 19.7083C58.3612 20.6806 59.1598 21.809 59.8542 23.0938C60.5487 24.3785 60.8959 25.7847 60.8959 27.3125C60.8959 29.9514 59.8716 32.2778 57.823 34.2917C55.7744 36.3056 53.4306 37.3125 50.7917 37.3125C49.0556 37.3125 47.6147 37.0521 46.4688 36.5312C45.323 36.0104 44.2749 35.2694 43.3246 34.3082L35.6876 26.6875L16.8334 45.5417C16.4862 45.8889 16.2431 46.2544 16.1042 46.6381C15.9654 47.0219 15.8959 47.4331 15.8959 47.8717C15.8959 48.7489 16.1911 49.4826 16.7813 50.0729C17.3716 50.6632 18.1066 50.9583 18.9862 50.9583C19.426 50.9583 19.8369 50.8542 20.2188 50.6458C20.6008 50.4375 20.9306 50.1944 21.2084 49.9167L35.5834 35.5417L39.9584 39.9167L25.6876 54.1875C25.3404 54.5347 25.0973 54.9167 24.9584 55.3333C24.8195 55.75 24.7501 56.1667 24.7501 56.5833C24.7501 57.4167 25.0626 58.1458 25.6876 58.7708C26.3126 59.3958 27.0417 59.7083 27.8751 59.7083C28.2917 59.7083 28.6911 59.6215 29.073 59.4479C29.4549 59.2743 29.7848 59.0486 30.0626 58.7708L44.4376 44.3958L48.8126 48.7708L34.5417 63.0417C34.264 63.3194 34.0383 63.6782 33.8647 64.118C33.6911 64.5579 33.6042 64.9977 33.6042 65.4375C33.6042 66.2708 33.9167 67 34.5417 67.625C35.1667 68.25 35.8959 68.5625 36.7292 68.5625C37.1459 68.5625 37.5279 68.4931 37.8751 68.3542C38.2223 68.2153 38.5695 67.9722 38.9167 67.625L53.2917 53.25L57.6667 57.625L43.2917 72C42.9445 72.3472 42.7015 72.7292 42.5626 73.1458C42.4237 73.5625 42.3542 73.9445 42.3542 74.2917C42.3542 75.2639 42.632 76.0278 43.1876 76.5833C43.7431 77.1389 44.507 77.4167 45.4792 77.4167ZM45.4859 83.6667C43.1898 83.6667 41.139 82.816 39.3334 81.1146C37.5279 79.4132 36.4515 77.3084 36.1042 74.8001C33.7431 74.4612 31.764 73.4931 30.1667 71.8958C28.5695 70.2986 27.5973 68.3195 27.2501 65.9583C24.889 65.6111 22.9272 64.6215 21.3647 62.9896C19.8022 61.3576 18.8473 59.3958 18.5001 57.1042C15.9306 56.7569 13.8126 55.7153 12.1459 53.9792C10.4792 52.2431 9.64591 50.1597 9.64591 47.7292C9.64591 46.5486 9.87939 45.3664 10.3463 44.1824C10.8133 42.9984 11.4826 41.9585 12.3542 41.0625L35.6876 17.7292L47.1459 29.1875C47.7015 29.7431 48.3033 30.1771 48.9514 30.4896C49.5996 30.8021 50.2478 30.9583 50.8959 30.9583C51.7987 30.9583 52.6494 30.559 53.448 29.7604C54.2466 28.9618 54.6459 28.1058 54.6459 27.1923C54.6459 26.7863 54.5244 26.3229 54.2813 25.8021C54.0383 25.2813 53.639 24.7431 53.0834 24.1875L38.1876 9.29167C37.2848 8.38889 36.2431 7.71181 35.0626 7.26042C33.882 6.80903 32.7015 6.58333 31.5209 6.58333C30.3635 6.58333 29.2061 6.80903 28.0487 7.26042C26.8913 7.71181 25.8632 8.38392 24.9646 9.27677L9.12508 25.125C8.15286 26.0972 7.47578 27.1215 7.09383 28.1979C6.71189 29.2743 6.48619 30.4896 6.41675 31.8438C6.3473 33.1979 6.60772 34.5174 7.198 35.8021C7.78828 37.0868 8.50008 38.25 9.33341 39.2917L4.85425 43.7708C3.46536 42.2431 2.33689 40.4028 1.46883 38.25C0.600776 36.0972 0.166748 33.9097 0.166748 31.6875C0.166748 29.6042 0.566054 27.6076 1.36466 25.6979C2.16328 23.7882 3.29175 22.1042 4.75008 20.6458L20.4792 4.91667C22.007 3.38889 23.7359 2.26042 25.666 1.53125C27.5962 0.802083 29.5753 0.4375 31.6035 0.4375C33.6318 0.4375 35.6008 0.802083 37.5105 1.53125C39.4202 2.26042 41.139 3.38889 42.6667 4.91667L44.5417 6.79167L46.4167 4.91667C47.9445 3.38889 49.6735 2.26042 51.6035 1.53125C53.5337 0.802083 55.5128 0.4375 57.541 0.4375C59.5693 0.4375 61.5383 0.802083 63.448 1.53125C65.3577 2.26042 67.0765 3.38889 68.6042 4.91667L87.2501 23.5625C88.7779 25.0903 89.9237 26.8275 90.6876 28.7743C91.4515 30.721 91.8334 32.7002 91.8334 34.7118C91.8334 36.7234 91.4515 38.684 90.6876 40.5938C89.9237 42.5035 88.7779 44.2222 87.2501 45.75L52.1459 80.8542C51.2431 81.757 50.2177 82.4514 49.0697 82.9375C47.9216 83.4236 46.727 83.6667 45.4859 83.6667Z" fill="white"/>
</svg>
