<svg width="80" height="80" viewBox="0 0 80 80" fill="none" xmlns="http://www.w3.org/2000/svg">
<path d="M10 70V10H70V70H10Z" fill="white"/>
<path d="M49.2299 54.9115C50.3833 56.7848 51.6366 58.5798 54.2916 58.5798C56.5216 58.5798 57.6916 57.4715 57.6916 55.9382C57.6916 54.1032 56.4816 53.4515 54.0283 52.3832L52.6833 51.8098C48.8016 50.1632 46.2199 48.0998 46.2199 43.7415C46.2199 39.7248 49.2949 36.6682 54.0999 36.6682C57.5216 36.6682 59.9799 37.8532 61.7533 40.9565L57.5633 43.6348C56.6416 41.9882 55.6449 41.3398 54.0999 41.3398C52.5233 41.3398 51.5249 42.3348 51.5249 43.6348C51.5249 45.2415 52.5249 45.8915 54.8333 46.8865L56.1783 47.4598C60.7533 49.4082 63.3333 51.3982 63.3333 55.8715C63.3333 60.6915 59.5266 63.3332 54.4166 63.3332C49.4183 63.3332 46.5799 60.8248 44.9999 57.7198L49.2299 54.9115ZM29.9199 55.0482C30.7633 56.5582 32.0449 57.7198 33.8883 57.7198C35.6516 57.7198 36.6666 57.0232 36.6666 54.3148V36.6665H42.2216V55.1682C42.2216 60.7798 38.9666 63.3332 34.2133 63.3332C29.9183 63.3332 26.8183 60.4232 25.5549 57.7198L29.9199 55.0482Z" fill="#36404D"/>
</svg>
