<svg width="80" height="80" viewBox="0 0 80 80" fill="none" xmlns="http://www.w3.org/2000/svg">
<g clip-path="url(#clip0_46_107)">
<path d="M49.6938 67.2212C49.4806 67.2216 49.271 67.1666 49.0854 67.0617C48.8998 66.9567 48.7446 66.8054 48.6351 66.6224L39.3163 51.0787L21.8876 55.8162C21.6222 55.88 21.3432 55.8539 21.0943 55.7419C20.8454 55.6299 20.6408 55.4384 20.5126 55.1974L0.146332 16.9174C0.0522429 16.7421 0.00205347 16.5466 6.16919e-05 16.3476C-0.00193009 16.1486 0.0443352 15.9521 0.134895 15.7749C0.225456 15.5977 0.357613 15.4451 0.520048 15.3302C0.682484 15.2152 0.870358 15.1414 1.06758 15.1149L18.3588 12.7899C18.5977 12.7569 18.841 12.7947 19.0585 12.8987C19.2761 13.0027 19.4583 13.1683 19.5826 13.3749L40.4576 48.2124L64.7151 41.6162L56.6276 30.1912C56.5103 30.0289 56.4344 29.8405 56.4065 29.6423C56.3785 29.4441 56.3992 29.242 56.4669 29.0536C56.5347 28.8652 56.6473 28.6962 56.7951 28.5612C56.9429 28.4261 57.1214 28.3292 57.3151 28.2787L68.6651 25.5962C68.8917 25.5422 69.1289 25.5536 69.3493 25.629C69.5697 25.7045 69.7641 25.8409 69.9101 26.0224L79.7313 38.2724C79.8595 38.432 79.9459 38.621 79.9826 38.8224C80.0194 39.0237 80.0054 39.2311 79.9418 39.4257C79.8783 39.6202 79.7673 39.7959 79.6188 39.9368C79.4703 40.0776 79.289 40.1792 79.0913 40.2324L68.7751 43.0449L77.8051 55.7699C77.916 55.9257 77.9892 56.1051 78.0188 56.2941C78.0483 56.483 78.0334 56.6763 77.9753 56.8584C77.9172 57.0406 77.8175 57.2068 77.684 57.3438C77.5505 57.4807 77.387 57.5847 77.2063 57.6474L50.0876 67.1324C49.9618 67.1791 49.8292 67.2048 49.6951 67.2087L49.6938 67.2212ZM41.7838 50.4049L50.2301 64.4899L74.8451 55.8724L66.2476 43.7537L41.7838 50.4049ZM3.15008 17.3024L22.2088 53.1774L38.0276 48.8862L17.8826 15.3437L3.15008 17.3024ZM59.7126 30.2599L67.2776 40.9274L76.6863 38.3687L68.5013 28.1762L59.7126 30.2599Z" fill="white"/>
</g>
<defs>
<clipPath id="clip0_46_107">
<rect width="80" height="80" fill="white"/>
</clipPath>
</defs>
</svg>
