<svg width="68" height="88" viewBox="0 0 68 88" fill="none" xmlns="http://www.w3.org/2000/svg">
<path d="M24.104 49.0833L27.854 37.1042L17.9582 29.3958H30.0415L33.9998 17L37.854 29.3958H50.0415L40.1457 37.1042L43.7915 49.0833L33.9998 41.6875L24.104 49.0833ZM9.4165 87.8333V56.1667C6.2915 52.9028 4.05192 49.3264 2.69775 45.4375C1.34359 41.5486 0.666504 37.625 0.666504 33.6667C0.666504 24.2222 3.86095 16.3056 10.2498 9.91668C16.6387 3.52779 24.5554 0.333344 33.9998 0.333344C43.4443 0.333344 51.3609 3.52779 57.7498 9.91668C64.1387 16.3056 67.3332 24.2222 67.3332 33.6667C67.3332 37.625 66.6561 41.5486 65.3019 45.4375C63.9478 49.3264 61.7082 52.9028 58.5832 56.1667V87.8333L33.9998 79.6042L9.4165 87.8333ZM33.9998 60.75C41.5693 60.75 47.9755 58.1285 53.2186 52.8854C58.4616 47.6424 61.0832 41.2361 61.0832 33.6667C61.0832 26.0972 58.4616 19.691 53.2186 14.4479C47.9755 9.20487 41.5693 6.58334 33.9998 6.58334C26.4304 6.58334 20.0241 9.20487 14.7811 14.4479C9.53803 19.691 6.9165 26.0972 6.9165 33.6667C6.9165 41.2361 9.53803 47.6424 14.7811 52.8854C20.0241 58.1285 26.4304 60.75 33.9998 60.75ZM15.6665 79.0833L33.9998 73.3542L52.3332 79.0833V61.2708C49.5554 63.2847 46.5693 64.7431 43.3748 65.6458C40.1804 66.5486 37.0554 67 33.9998 67C30.9443 67 27.8193 66.5486 24.6248 65.6458C21.4304 64.7431 18.4443 63.2847 15.6665 61.2708V79.0833Z" fill="white"/>
</svg>
