<svg width="160" height="38" viewBox="0 0 160 38" fill="none" xmlns="http://www.w3.org/2000/svg">
<g clip-path="url(#clip0_46_81)">
<path d="M70.1412 21.0794H58.0957C57.9478 22.8691 58.4069 23.7796 60.0099 23.9663C62.1322 24.1376 64.2619 24.2 66.3906 24.1531C67.1687 24.1531 67.9468 24.0519 68.7717 23.9897L69.4486 28.5729C65.1144 30.1758 60.788 30.6972 56.3993 29.5144C52.8588 28.5573 50.9524 25.9972 50.3843 22.4178C49.9034 19.2338 50.2656 15.9794 51.4348 12.979C51.6462 12.3555 51.9931 11.7865 52.4505 11.3129C52.908 10.8393 53.4646 10.4729 54.0805 10.24C57.1652 9.00377 60.5332 8.65081 63.8072 9.22066C67.1142 9.81204 68.8884 11.6329 69.472 15.0022C69.7988 16.8931 69.9 18.8228 70.1412 21.0794ZM62.959 17.5467C63.0135 16.1305 63.0679 14.6365 61.7762 14.1073C60.8347 13.7105 59.2317 13.6872 58.547 14.2552C57.8622 14.8232 57.87 16.3406 57.5821 17.5467H62.959Z" fill="white"/>
<path d="M94.9791 9.33756C93.4228 12.3956 92.0066 15.2514 90.5048 18.0527C90.2879 18.3919 90.1726 18.7861 90.1726 19.1887C90.1726 19.5914 90.2879 19.9856 90.5048 20.3248C92.1544 23.3284 93.7263 26.3787 95.4148 29.5768C93.0804 29.5768 90.8783 29.6235 88.7073 29.5379C88.326 29.5379 87.828 29.0244 87.6257 28.6353C86.4274 26.3009 85.2913 23.8809 83.9918 21.1963C82.7234 23.8031 81.5485 26.1064 80.498 28.4641C80.3744 28.849 80.1155 29.1762 79.7693 29.385C79.4232 29.5939 79.0131 29.6703 78.6149 29.6002C76.6773 29.5224 74.7242 29.6002 72.5532 29.6002C74.0628 26.7911 75.4245 24.0832 76.9575 21.4687C77.8056 20.0213 78.0702 18.8464 77.1053 17.2512C75.6346 14.7845 74.483 12.0999 73.0979 9.33756C75.4323 9.33756 77.5488 9.33756 79.6732 9.37646C79.9055 9.43531 80.1225 9.54365 80.3092 9.69406C80.4958 9.84447 80.6478 10.0334 80.7548 10.248C81.8286 12.4501 82.8246 14.6055 84.0385 17.1189C85.1357 14.7845 86.1472 12.7925 87.0265 10.7304C87.1669 10.2436 87.4842 9.8268 87.9161 9.5619C88.348 9.297 88.8633 9.2031 89.3609 9.29865C91.0806 9.43093 92.8781 9.33756 94.9791 9.33756Z" fill="white"/>
<path d="M152.172 24.6826C152.615 23.3754 152.016 22.9085 151.129 22.6284C150.071 22.3015 148.981 22.037 147.939 21.6479C142.857 19.7493 142.297 14.5902 144.772 10.754C145.114 10.3602 145.534 10.041 146.005 9.81612C146.477 9.59125 146.989 9.46553 147.511 9.44676C151.23 9.29891 154.957 9.38451 158.949 9.38451C158.786 11.0731 158.63 12.6371 158.459 14.4113C157.494 14.3412 156.607 14.2712 155.712 14.2245C154.397 14.1623 153.09 14.0533 151.783 14.0844C151.362 14.0844 150.95 14.4969 150.538 14.7225C150.872 15.1816 151.121 15.8508 151.565 16.0376C152.989 16.6445 154.522 16.9869 155.961 17.5938C160.467 19.3991 161.478 25.3752 157.595 28.1609C155.974 29.2356 154.092 29.8513 152.148 29.9428C149.137 30.1062 146.094 29.6938 142.865 29.5148C143.254 27.4917 143.566 25.8965 143.869 24.3013L152.172 24.6826Z" fill="white"/>
<path d="M27.6547 23.4142C28.176 21.4067 28.6585 19.7959 28.9931 18.1618C29.0426 17.7617 29.2214 17.3886 29.5023 17.0993C29.7832 16.8099 30.1508 16.6202 30.5493 16.5589C33.1172 15.9286 35.6617 15.2049 38.5486 14.4346C37.9494 16.9168 37.4436 19.0645 36.9223 21.2043C36.0508 24.7838 35.1403 28.3554 34.3077 31.9504C33.9809 33.3666 33.444 34.1136 31.771 33.9657C29.7012 33.7712 27.5924 33.9657 25.5459 33.8646C25.1854 33.8317 24.8361 33.7216 24.5219 33.5417C24.2077 33.3617 23.9359 33.1162 23.7251 32.8219C21.7331 29.1024 19.8889 25.2895 17.9358 21.5467C17.4067 20.5274 17.5701 20.0838 18.7139 19.8193C20.2702 19.4561 21.8135 19.0308 23.3438 18.5431C24.4877 18.193 25.2503 18.3175 25.7405 19.578C26.3135 20.8882 26.9524 22.1686 27.6547 23.4142Z" fill="white"/>
<path d="M108.939 4.18652V9.2833H113.561V13.6409H109.055C109.055 16.9168 109.017 20.0138 109.11 23.103C109.11 23.4998 109.81 24.099 110.269 24.2079C111.158 24.3156 112.055 24.3312 112.946 24.2546C113.086 25.8654 113.218 27.4294 113.358 29.1179C110.549 29.9506 107.795 30.363 105.025 29.577C102.62 28.8923 101.57 27.3983 101.531 24.8304C101.476 21.1888 101.531 17.5471 101.531 13.7498L98.2627 13.6019V9.76575C98.395 9.71906 98.535 9.6179 98.6595 9.63346C101.188 9.92137 102.223 8.43514 102.753 6.27192C103.079 4.90241 103.811 4.1554 105.406 4.35771C106.586 4.40286 107.768 4.34558 108.939 4.18652Z" fill="white"/>
<path d="M127.925 37.4518V32.7441L130.26 32.5028C132.267 32.3083 132.4 32.1994 132.4 30.2151C132.4 24.029 132.4 17.8506 132.4 11.6722V9.43115H139.737C139.792 9.50897 139.893 9.58678 139.885 9.66459C139.839 16.3332 139.885 23.0018 139.644 29.6627C139.574 31.5613 138.656 33.4599 137.955 35.3041C137.71 35.929 137.281 36.4653 136.726 36.8429C136.171 37.2205 135.514 37.4218 134.843 37.4207C132.664 37.5452 130.4 37.4518 127.925 37.4518Z" fill="white"/>
<path d="M14.9167 15.7181C14.7066 15.9671 14.5977 16.0371 14.5899 16.1071C14.5432 19.1652 12.699 20.3246 9.92107 20.7759C8.34549 21.0896 6.78715 21.4844 5.25227 21.9587C5.07654 21.9801 4.89886 21.9801 4.72313 21.9587C4.68799 21.6458 4.68799 21.33 4.72313 21.0172C5.99927 15.7803 7.31432 10.5513 8.55156 5.30664C8.55083 5.06804 8.60497 4.83247 8.70979 4.61814C8.81462 4.4038 8.96732 4.21644 9.1561 4.07053C9.34488 3.92462 9.56468 3.82407 9.79852 3.77665C10.0324 3.72923 10.274 3.73621 10.5047 3.79706C12.45 3.88265 14.3953 3.85153 16.3407 3.79706C16.7514 3.75624 17.1642 3.85038 17.5166 4.0652C17.8691 4.28002 18.1419 4.60384 18.2938 4.9876C20.0472 8.51514 21.8239 12.0271 23.624 15.5235C24.0987 16.4417 23.9664 16.9242 22.9159 17.181C21.313 17.5623 19.7022 17.9591 18.1382 18.4727C16.971 18.8695 16.3096 18.5816 15.8816 17.4533C15.5958 16.8557 15.2736 16.2762 14.9167 15.7181Z" fill="white"/>
<path d="M3.65723 25.0015L0.124502 25.6785L0 25.1416L13.0804 21.3521C13.0644 21.8734 13.0151 22.3933 12.9326 22.9083C12.1545 26.1142 11.3219 29.3046 10.5982 32.5183C10.357 33.5532 9.90565 33.9734 8.80848 33.9189C6.81646 33.8333 4.81665 33.8722 2.82463 33.9189C1.90643 33.9189 1.61852 33.6232 1.8753 32.6817C2.39665 30.8064 2.83241 28.9155 3.29151 27.0246C3.40823 26.4566 3.49382 25.8964 3.65723 25.0015Z" fill="white"/>
<path d="M39.397 11.2909L46.9527 9.89804L47.0617 10.3649L29.7793 15.2672C30.1917 13.5319 30.4952 12.2324 30.8064 10.933C31.2889 8.94872 31.818 6.97226 32.2538 4.98023C32.2639 4.80002 32.3124 4.62405 32.396 4.46408C32.4796 4.30412 32.5964 4.16384 32.7386 4.05261C32.8807 3.94139 33.045 3.86179 33.2204 3.81913C33.3957 3.77648 33.5782 3.77174 33.7556 3.80525C35.7476 3.85194 37.7474 3.85194 39.7394 3.80525C40.8599 3.80525 41.2257 4.08538 40.8911 5.25258C40.3386 7.14345 39.934 9.081 39.397 11.2909Z" fill="white"/>
<path d="M124.968 25.6786C125.013 26.2384 124.938 26.8012 124.749 27.3298C124.559 27.8584 124.26 28.3407 123.87 28.7447C123.48 29.1487 123.008 29.4651 122.487 29.673C121.965 29.8809 121.405 29.9755 120.844 29.9506C118.276 29.9506 116.634 28.3009 116.619 25.6397C116.601 25.0819 116.697 24.5262 116.9 24.0066C117.104 23.4869 117.412 23.0143 117.804 22.6174C118.197 22.2206 118.666 21.9079 119.183 21.6984C119.7 21.4889 120.255 21.387 120.813 21.3989C121.373 21.384 121.931 21.4855 122.45 21.697C122.969 21.9085 123.439 22.2253 123.829 22.6275C124.22 23.0297 124.523 23.5085 124.719 24.0337C124.915 24.5588 125 25.1189 124.968 25.6786Z" fill="white"/>
<path d="M136.174 6.77777C135.247 6.7864 134.354 6.43224 133.685 5.79099C133.016 5.14975 132.625 4.27229 132.594 3.3462C132.667 2.44378 133.077 1.60185 133.742 0.98796C134.408 0.374065 135.28 0.0332031 136.185 0.0332031C137.091 0.0332031 137.963 0.374065 138.628 0.98796C139.294 1.60185 139.704 2.44378 139.776 3.3462C139.769 3.80938 139.67 4.26652 139.485 4.69092C139.299 5.11531 139.031 5.49845 138.695 5.81794C138.36 6.13743 137.964 6.38686 137.531 6.55166C137.098 6.71647 136.637 6.79333 136.174 6.77777Z" fill="white"/>
</g>
<defs>
<clipPath id="clip0_46_81">
<rect width="160" height="37.4827" fill="white"/>
</clipPath>
</defs>
</svg>
