<svg width="80" height="80" viewBox="0 0 80 80" fill="none" xmlns="http://www.w3.org/2000/svg">
<path d="M40.0116 75.6983C39.0549 75.6983 38.1066 75.4483 37.2683 74.9649L28.5349 69.7933C27.2299 69.0633 27.8666 68.8049 28.2966 68.6566C30.0366 68.0483 30.3883 67.9099 32.2449 66.8549C32.4399 66.7433 32.6949 66.7833 32.8949 66.9016L39.6049 70.8833C39.8466 71.0149 40.1916 71.0149 40.4149 70.8833L66.5766 55.7816C66.8182 55.6433 66.9766 55.3633 66.9766 55.0749V24.8866C66.9766 24.5849 66.8199 24.3166 66.5716 24.1666L40.4216 9.07661C40.1799 8.93328 39.8583 8.93328 39.6166 9.07661L13.4699 24.1649C13.2166 24.3083 13.0549 24.5899 13.0549 24.8783V55.0683C13.0549 55.3566 13.2116 55.6316 13.4616 55.7683L20.6266 59.9066C24.5166 61.8516 26.8933 59.56 26.8933 57.255V27.4599C26.8933 27.0349 27.2266 26.7066 27.6532 26.7066H30.9666C31.3799 26.7066 31.7199 27.0333 31.7199 27.4599V57.27C31.7199 62.4566 28.8916 65.4366 23.9733 65.4366C22.4599 65.4366 21.2683 65.4366 17.9416 63.7999L11.0783 59.845C9.38158 58.8616 8.33325 57.0266 8.33325 55.07V24.88C8.33325 22.915 9.38159 21.0816 11.0766 20.1116L37.2666 5.00328C38.9233 4.06661 41.1233 4.06661 42.7682 5.00328L68.9249 20.1183C70.6116 21.0933 71.6666 22.9216 71.6666 24.8866V55.0766C71.6666 57.035 70.6116 58.8616 68.9233 59.845L42.7666 74.9516C41.9283 75.4366 40.9783 75.6849 40.0099 75.6849" fill="white"/>
<path d="M48.0933 54.8952C36.6466 54.8952 34.2466 49.6402 34.2466 45.2335C34.2466 44.8152 34.5849 44.4802 35.0049 44.4802H38.3849C38.7582 44.4802 39.0732 44.7519 39.1316 45.1202C39.6416 48.5635 41.1616 50.3002 48.0832 50.3002C53.5966 50.3002 55.9416 49.0552 55.9416 46.1302C55.9416 44.4469 55.2732 43.1969 46.7082 42.3585C39.5432 41.6519 35.1166 40.0735 35.1166 34.3435C35.1166 29.0652 39.5699 25.9219 47.0282 25.9219C55.4049 25.9219 59.5566 28.8302 60.0799 35.0769C60.0999 35.2935 60.0216 35.5019 59.8766 35.6602C59.7332 35.8102 59.5299 35.9019 59.3199 35.9019H55.9216C55.5683 35.9019 55.2599 35.6535 55.1882 35.3119C54.3699 31.6902 52.3916 30.5319 47.0149 30.5319C40.9966 30.5319 40.2966 32.6269 40.2966 34.1985C40.2966 36.1035 41.1216 36.6602 49.2416 37.7352C57.2832 38.8019 61.1016 40.3085 61.1016 45.9602C61.1016 51.6569 56.3466 54.9252 48.0566 54.9252" fill="white"/>
</svg>
