<svg width="100" height="50" viewBox="0 0 100 50" fill="none" xmlns="http://www.w3.org/2000/svg">
<path d="M0 50V44.4792C0 41.8009 1.44097 39.6209 4.32292 37.9392C7.20486 36.2575 10.9853 35.4167 15.6642 35.4167C16.509 35.4167 17.3213 35.434 18.1011 35.4688C18.8809 35.5035 19.6528 35.5782 20.4167 35.6929C19.8611 36.8976 19.4444 38.1186 19.1667 39.3559C18.8889 40.5932 18.75 41.8843 18.75 43.2292V50H0ZM25 50V43.2292C25 41.0069 25.6076 38.9757 26.8229 37.1354C28.0382 35.2951 29.7569 33.6806 31.9792 32.2917C34.2014 30.9028 36.8576 29.8611 39.9479 29.1667C43.0382 28.4722 46.3889 28.125 50 28.125C53.6806 28.125 57.066 28.4722 60.1562 29.1667C63.2465 29.8611 65.9028 30.9028 68.125 32.2917C70.3472 33.6806 72.0486 35.2951 73.2292 37.1354C74.4097 38.9757 75 41.0069 75 43.2292V50H25ZM81.25 50V43.2292C81.25 41.8499 81.1285 40.5502 80.8854 39.3301C80.6424 38.11 80.2431 36.9002 79.6875 35.7007C80.4514 35.5808 81.2212 35.5035 81.997 35.4688C82.7728 35.434 83.5655 35.4167 84.375 35.4167C89.0625 35.4167 92.8385 36.2419 95.7031 37.8925C98.5677 39.5431 100 41.7386 100 44.4792V50H81.25ZM31.25 43.75H68.75V43.125C68.75 40.5556 66.9965 38.4549 63.4896 36.8229C59.9826 35.191 55.4861 34.375 50 34.375C44.5139 34.375 40.0174 35.191 36.5104 36.8229C33.0035 38.4549 31.25 40.5903 31.25 43.2292V43.75ZM15.5799 32.2917C13.5961 32.2917 11.8924 31.5777 10.4688 30.1498C9.04514 28.7218 8.33333 27.0052 8.33333 25C8.33333 22.9861 9.04729 21.2674 10.4752 19.8438C11.9032 18.4201 13.6198 17.7083 15.625 17.7083C17.6389 17.7083 19.3576 18.4201 20.7812 19.8438C22.2049 21.2674 22.9167 23.0011 22.9167 25.0451C22.9167 27.0289 22.2049 28.7326 20.7812 30.1562C19.3576 31.5799 17.6239 32.2917 15.5799 32.2917ZM84.3299 32.2917C82.3461 32.2917 80.6424 31.5777 79.2188 30.1498C77.7951 28.7218 77.0833 27.0052 77.0833 25C77.0833 22.9861 77.7973 21.2674 79.2252 19.8438C80.6532 18.4201 82.3698 17.7083 84.375 17.7083C86.3889 17.7083 88.1076 18.4201 89.5312 19.8438C90.9549 21.2674 91.6667 23.0011 91.6667 25.0451C91.6667 27.0289 90.9549 28.7326 89.5312 30.1562C88.1076 31.5799 86.3739 32.2917 84.3299 32.2917ZM50 25C46.5278 25 43.5764 23.7847 41.1458 21.3542C38.7153 18.9236 37.5 15.9722 37.5 12.5C37.5 8.95833 38.7153 5.98958 41.1458 3.59375C43.5764 1.19792 46.5278 0 50 0C53.5417 0 56.5104 1.19792 58.9062 3.59375C61.3021 5.98958 62.5 8.95833 62.5 12.5C62.5 15.9722 61.3021 18.9236 58.9062 21.3542C56.5104 23.7847 53.5417 25 50 25ZM50.0366 18.75C51.8177 18.75 53.2986 18.1475 54.4792 16.9426C55.6597 15.7377 56.25 14.2446 56.25 12.4634C56.25 10.6823 55.6545 9.20139 54.4636 8.02083C53.2727 6.84028 51.7971 6.25 50.0366 6.25C48.2761 6.25 46.7882 6.84545 45.5729 8.03635C44.3576 9.22726 43.75 10.7029 43.75 12.4634C43.75 14.2239 44.3525 15.7118 45.5574 16.9271C46.7623 18.1424 48.2554 18.75 50.0366 18.75Z" fill="white"/>
</svg>
