<svg width="80" height="80" viewBox="0 0 80 80" fill="none" xmlns="http://www.w3.org/2000/svg">
<g clip-path="url(#clip0_46_101)">
<path d="M40 61.5C18.22 61.5 0.5 51.855 0.5 40C0.5 28.145 18.22 18.5 40 18.5C61.78 18.5 79.5 28.145 79.5 40C79.5 51.855 61.78 61.5 40 61.5Z" fill="white"/>
<path d="M40 19C61.505 19 79 28.421 79 40C79 51.579 61.505 61 40 61C18.495 61 1 51.579 1 40C1 28.421 18.495 19 40 19ZM40 18C17.909 18 0 27.85 0 40C0 52.15 17.909 62 40 62C62.091 62 80 52.15 80 40C80 27.85 62.091 18 40 18Z" fill="#8B75A1"/>
<path d="M25.112 34C26.837 34 28.326 34.622 29.196 35.706C29.945 36.64 30.177 37.877 29.864 39.283C29.023 43.074 27.395 44 21.57 44H17.43L19.18 34H25.112ZM25.112 32H17.5L14 52H16L17.056 46H21.571C27.434 46 30.624 45.095 31.817 39.716C32.842 35.096 29.436 32 25.112 32ZM61.112 34C62.837 34 64.326 34.622 65.196 35.706C65.945 36.64 66.177 37.877 65.864 39.283C65.023 43.074 63.395 44 57.57 44H53.43L55.18 34H61.112ZM61.112 32H53.5L50 52H52L53.056 46H57.571C63.434 46 66.624 45.095 67.817 39.716C68.842 35.096 65.436 32 61.112 32Z" fill="#36404D"/>
<path d="M49.072 33.212C48.193 32.348 46.644 32 44.334 32H38.796L40 26H37.9L34 46H35.99L38.378 34H38.797H44.335C46.673 34 47.429 34.4 47.67 34.637C48.013 34.975 48.094 35.863 47.887 37L46.12 46H48.226L49.852 37.37C50.199 35.462 49.936 34.062 49.072 33.212Z" fill="#36404D"/>
</g>
<defs>
<clipPath id="clip0_46_101">
<rect width="80" height="80" fill="white"/>
</clipPath>
</defs>
</svg>
