<svg width="74" height="68" viewBox="0 0 74 68" fill="none" xmlns="http://www.w3.org/2000/svg">
<path fill-rule="evenodd" clip-rule="evenodd" d="M52.2875 0.375232C51.04 0.333285 49.7342 0.55078 48.425 0.975232C45.8065 1.82414 43.0627 3.47845 40.2468 5.76898C39.1433 6.66664 38.0298 7.69276 36.9125 8.78148C35.8198 7.7204 34.7291 6.72183 33.65 5.84398C30.8364 3.55529 28.1 1.90034 25.4875 1.05336C22.875 0.206374 20.2755 0.180129 18.1406 1.41273C16.0056 2.64533 14.7289 4.908 14.1562 7.59398C13.5835 10.28 13.6466 13.4786 14.2218 17.0596C14.4216 18.3034 14.7066 19.6084 15.0312 20.9377C13.8113 21.3074 12.6266 21.6962 11.5281 22.1252C8.21272 23.4201 5.46947 24.9693 3.47183 26.8127C1.47419 28.6562 0.184326 30.8935 0.184326 33.3502C0.184326 35.8069 1.47419 38.0412 3.47183 39.8846C5.46947 41.728 8.21272 43.2803 11.5281 44.5752C12.7028 45.034 13.9745 45.4472 15.2875 45.8377C14.8152 47.6023 14.4326 49.3146 14.1718 50.9377C13.5961 54.5216 13.5353 57.7207 14.1093 60.4127C14.6834 63.1048 15.9607 65.3803 18.1062 66.619C20.2517 67.8577 22.8628 67.8273 25.4812 66.9784C28.0996 66.1295 30.8404 64.4783 33.6562 62.1877C34.7496 61.2983 35.8556 60.2838 36.9625 59.2065C38.0751 60.2903 39.1856 61.3096 40.2843 62.2034C43.0979 64.4921 45.8375 66.1439 48.45 66.9909C51.0625 67.8378 53.6619 67.8641 55.7968 66.6315C57.9318 65.3989 59.2053 63.1362 59.7781 60.4502C60.3508 57.7643 60.2877 54.5687 59.7125 50.9877C59.451 49.3602 59.0681 47.6422 58.5937 45.8721C59.95 45.472 61.2619 45.0478 62.4718 44.5752C65.7872 43.2803 68.5304 41.728 70.5281 39.8846C72.5257 38.0412 73.8156 35.8069 73.8156 33.3502C73.8156 30.8935 72.5257 28.6562 70.5281 26.8127C68.5304 24.9693 65.7872 23.4201 62.4718 22.1252C61.3575 21.69 60.1547 21.2962 58.9156 20.9221C59.2428 19.5846 59.5333 18.2703 59.7343 17.019C60.3101 13.4351 60.3709 10.2329 59.7968 7.54086C59.2228 4.84878 57.9423 2.57643 55.7968 1.33773C54.7241 0.718384 53.5349 0.417179 52.2875 0.375232ZM52.1406 3.63148C52.9234 3.65289 53.5912 3.83917 54.1625 4.16898C55.3049 4.8286 56.1494 6.11238 56.6 8.22523C57.0505 10.3381 57.0349 13.1928 56.5031 16.5034C56.321 17.6368 56.0566 18.8381 55.7562 20.069C52.4834 19.2813 48.8971 18.6969 45.075 18.3534C43.1562 15.6952 41.1846 13.2735 39.1968 11.1252C40.2482 10.0989 41.2929 9.13899 42.3125 8.30961C44.9136 6.19373 47.3762 4.75399 49.4312 4.08773C50.4587 3.7546 51.3578 3.61008 52.1406 3.63148ZM21.7781 3.64086C22.5654 3.61888 23.4663 3.76302 24.4968 4.09711C26.5578 4.76528 29.0247 6.20439 31.6281 8.32211C32.6272 9.13485 33.6484 10.0765 34.6781 11.0784C32.6756 13.2442 30.6877 15.6869 28.7562 18.369C24.9502 18.7188 21.3785 19.3064 18.1218 20.0971C17.8237 18.8731 17.5592 17.678 17.3781 16.5502C16.8458 13.2368 16.8325 10.3817 17.2843 8.26273C17.7362 6.14379 18.5875 4.85032 19.7406 4.18461C20.3171 3.85175 20.9907 3.66284 21.7781 3.64086ZM36.9625 13.4284C38.2658 14.8467 39.5695 16.3989 40.8625 18.069C39.592 18.016 38.306 17.9846 37 17.9846C35.6679 17.9846 34.3574 18.017 33.0625 18.0721C34.3557 16.4007 35.6588 14.8478 36.9625 13.4284ZM37 21.2159C39.1758 21.2159 41.2965 21.3053 43.3593 21.4565C44.7787 23.4951 46.1658 25.6579 47.4875 27.9471C48.6488 29.9585 49.6997 31.9669 50.6562 33.9502C49.6896 35.9599 48.621 37.9954 47.4437 40.0346C46.4073 41.8297 45.3251 43.5345 44.225 45.1784C41.8949 45.3731 39.4804 45.4815 37 45.4815C34.4598 45.4815 31.9911 45.3667 29.6093 45.1627C28.5275 43.5426 27.4635 41.8635 26.4437 40.0971C25.269 38.0625 24.2057 36.0308 23.2406 34.0252C24.2097 32.0084 25.2779 29.9653 26.4593 27.919C27.7741 25.6418 29.1571 23.4915 30.5687 21.4627C32.6537 21.3081 34.7991 21.2159 37 21.2159ZM47.4781 21.8565C50.1156 22.1856 52.5921 22.6425 54.8968 23.1909C54.213 25.4327 53.3706 27.7743 52.35 30.1909C51.6873 28.9134 51.0009 27.6316 50.2593 26.3471C49.3606 24.7905 48.4246 23.3065 47.4781 21.8565ZM26.35 21.8815C25.4234 23.3044 24.5117 24.7596 23.6312 26.2846C22.8801 27.5856 22.1795 28.8846 21.5093 30.1784C20.4975 27.7764 19.6602 25.448 18.9812 23.219C21.2688 22.6696 23.7308 22.2143 26.35 21.8815ZM58.0625 24.0409C59.1967 24.384 60.2921 24.7422 61.2968 25.1346C64.3531 26.3283 66.7706 27.7418 68.3375 29.1877C69.9043 30.6336 70.5843 32.0125 70.5843 33.3502C70.5843 34.6879 69.9043 36.0668 68.3375 37.5127C66.7706 38.9586 64.3531 40.3722 61.2968 41.5659C60.1803 42.002 58.9535 42.3974 57.6781 42.7721C56.7683 39.9581 55.607 37.0223 54.225 34.0252C55.814 30.5844 57.0977 27.2295 58.0625 24.0409ZM15.8843 24.0565C16.838 27.2133 18.1052 30.5348 19.6718 33.9409C18.2807 36.9554 17.1137 39.9078 16.2 42.7377C14.9695 42.3729 13.7843 41.9882 12.7031 41.5659C9.64683 40.3722 7.22931 38.9586 5.66245 37.5127C4.09559 36.0668 3.41558 34.6879 3.41558 33.3502C3.41558 32.0125 4.09559 30.6336 5.66245 29.1877C7.22931 27.7418 9.64683 26.3283 12.7031 25.1346C13.6924 24.7482 14.7694 24.3952 15.8843 24.0565ZM37 26.0002C32.6006 26.0002 29 29.6009 29 34.0002C29 38.3996 32.6006 42.0002 37 42.0002C41.3993 42.0002 45 38.3996 45 34.0002C45 29.6009 41.3993 26.0002 37 26.0002ZM21.5468 37.7846C22.2199 39.0848 22.92 40.3895 23.675 41.6971C24.2656 42.7202 24.8689 43.7161 25.4812 44.694C23.3325 44.396 21.2899 44.0188 19.3718 43.5721C19.9818 41.7039 20.7115 39.7647 21.5468 37.7846ZM52.3906 37.7846C53.2292 39.7694 53.9593 41.7117 54.5718 43.5846C52.6476 44.0308 50.5988 44.4067 48.4437 44.7034C49.0641 43.7135 49.6767 42.7051 50.275 41.669C51.0244 40.371 51.7217 39.0753 52.3906 37.7846ZM18.45 46.6784C21.3457 47.3643 24.4843 47.8913 27.8125 48.2346C30.0342 51.448 32.3487 54.3354 34.6781 56.8596C33.6365 57.8752 32.6041 58.8284 31.5937 59.6502C28.9926 61.7661 26.5269 63.2027 24.4718 63.869C22.4168 64.5352 20.8831 64.4473 19.7406 63.7877C18.5981 63.1281 17.7567 61.8443 17.3062 59.7315C16.8557 57.6186 16.8681 54.7671 17.4 51.4565C17.6412 49.9546 18.0018 48.3464 18.45 46.6784ZM55.4968 46.6909C55.9487 48.3691 56.3104 49.9832 56.5531 51.494C57.0854 54.8075 57.0987 57.6625 56.6468 59.7815C56.195 61.9004 55.3499 63.197 54.1968 63.8627C53.0438 64.5284 51.4953 64.6153 49.4343 63.9471C47.3734 63.2789 44.9065 61.8398 42.3031 59.7221C41.2855 58.8943 40.2459 57.9334 39.1968 56.9096C41.5418 54.3756 43.8727 51.4734 46.1093 48.2409C49.4459 47.8998 52.5932 47.376 55.4968 46.6909ZM31.9875 48.5627C33.6303 48.6523 35.2947 48.7127 37 48.7127C38.6488 48.7127 40.2593 48.6559 41.85 48.5721C40.2239 50.766 38.5664 52.7605 36.9156 54.5565C35.2658 52.7566 33.6114 50.7586 31.9875 48.5627Z" fill="white"/>
</svg>
