<svg width="92" height="92" viewBox="0 0 92 92" fill="none" xmlns="http://www.w3.org/2000/svg">
<path d="M76.4165 29.8542L71.9373 19.4375L61.104 14.6458L71.9373 9.95833L76.4165 0.0625L80.8957 9.95833L91.729 14.6458L80.8957 19.4375L76.4165 29.8542ZM76.4165 91.8333L71.9373 81.8333L61.104 77.1458L71.9373 72.4583L76.4165 61.9375L80.8957 72.4583L91.729 77.1458L80.8957 81.8333L76.4165 91.8333ZM30.6873 75.7917L21.104 55.2708L0.166504 45.8958L21.104 36.5208L30.6873 16.1042L40.3748 36.5208L61.2082 45.8958L40.3748 55.2708L30.6873 75.7917ZM30.6873 60.375L35.6873 50.375L45.8957 45.8958L35.6873 41.4167L30.6873 31.4167L25.7915 41.4167L15.479 45.8958L25.7915 50.375L30.6873 60.375Z" fill="white"/>
</svg>
