<svg width="32" height="32" viewBox="0 0 32 32" fill="none" xmlns="http://www.w3.org/2000/svg">
<path d="M30.0533 8.55967C29.8949 7.92689 29.5723 7.3471 29.1182 6.87888C28.664 6.41066 28.0943 6.07059 27.4666 5.89301C25.1733 5.33301 15.9999 5.33301 15.9999 5.33301C15.9999 5.33301 6.82662 5.33301 4.53328 5.94634C3.90561 6.12392 3.33592 6.464 2.88174 6.93222C2.42757 7.40044 2.105 7.98022 1.94662 8.61301C1.5269 10.9404 1.3216 13.3014 1.33328 15.6663C1.31832 18.0491 1.52364 20.4281 1.94662 22.773C2.12123 23.3861 2.45102 23.9439 2.90414 24.3923C3.35726 24.8408 3.91838 25.1648 4.53328 25.333C6.82662 25.9463 15.9999 25.9463 15.9999 25.9463C15.9999 25.9463 25.1733 25.9463 27.4666 25.333C28.0943 25.1554 28.664 24.8154 29.1182 24.3471C29.5723 23.8789 29.8949 23.2991 30.0533 22.6663C30.4698 20.3565 30.675 18.0135 30.6666 15.6663C30.6816 13.2836 30.4763 10.9046 30.0533 8.55967Z" stroke="white" stroke-width="2" stroke-linecap="round" stroke-linejoin="round"/>
<path d="M13 20.0266L20.6667 15.6666L13 11.3066V20.0266Z" stroke="white" stroke-width="2" stroke-linecap="round" stroke-linejoin="round"/>
</svg>
